<?xml version="1.0" standalone="no"?>
<!DOCTYPE svg PUBLIC "-//W3C//DTD SVG 20010904//EN"
 "http://www.w3.org/TR/2001/REC-SVG-20010904/DTD/svg10.dtd">
<svg version="1.0" xmlns="http://www.w3.org/2000/svg"
 width="360.000000pt" height="360.000000pt" viewBox="0 0 360.000000 360.000000"
 preserveAspectRatio="xMidYMid meet">

<g transform="translate(0.000000,360.000000) scale(0.100000,-0.100000)"
fill="#000000" stroke="none">
<path d="M865 3383 c-11 -2 -31 -9 -45 -15 -14 -6 -36 -15 -50 -21 -27 -12
-120 -96 -120 -109 0 -5 -11 -26 -25 -48 l-25 -39 3 -1428 c2 -1411 2 -1428
22 -1455 21 -28 85 -58 124 -58 30 0 89 28 121 56 14 13 59 50 100 84 41 34
85 70 98 81 12 10 25 19 27 19 3 0 19 12 36 27 16 16 42 39 57 53 15 14 32 27
38 30 11 5 82 63 154 128 21 17 41 32 45 32 4 0 16 11 27 25 11 14 24 25 29
25 6 0 20 10 33 23 13 12 41 36 61 52 97 77 155 129 155 138 0 6 3 7 7 4 4 -4
19 5 35 20 l28 27 30 -29 c17 -16 30 -26 30 -24 0 3 21 -15 48 -39 26 -24 63
-56 82 -70 19 -15 42 -33 52 -42 9 -8 28 -24 43 -35 15 -11 40 -32 57 -47 16
-16 32 -28 35 -28 3 0 25 -17 48 -37 67 -61 137 -118 149 -122 6 -2 19 -15 29
-28 10 -12 24 -23 31 -23 7 0 24 -12 37 -28 13 -15 42 -41 64 -57 40 -29 148
-117 195 -158 34 -30 92 -57 123 -57 43 0 111 35 127 65 13 25 15 208 15 1454
l0 1426 -29 53 c-30 55 -93 118 -142 141 -16 7 -38 18 -49 25 -14 8 -279 11
-955 12 -514 1 -944 0 -955 -3z m1891 -122 c21 -11 56 -37 76 -58 72 -75 68
24 68 -1488 -1 -1476 2 -1405 -53 -1391 -14 3 -38 18 -55 33 -16 16 -53 46
-82 68 -28 22 -62 49 -74 60 -32 28 -91 76 -122 100 -14 11 -40 32 -58 47 -17
15 -38 33 -47 40 -79 65 -125 104 -127 110 -2 5 -10 8 -18 8 -8 0 -14 5 -14
10 0 6 -8 14 -17 17 -10 4 -30 18 -44 32 -14 14 -41 38 -60 54 -19 15 -94 77
-167 137 -100 82 -141 110 -162 110 -26 0 -63 -26 -189 -132 -75 -63 -110 -92
-136 -113 -68 -54 -121 -98 -142 -115 -11 -10 -47 -40 -79 -66 -32 -26 -64
-52 -70 -58 -7 -6 -26 -22 -43 -36 -17 -14 -42 -34 -55 -45 -13 -12 -39 -32
-57 -45 -18 -14 -45 -36 -60 -50 -15 -14 -51 -43 -79 -65 -29 -22 -68 -55 -88
-73 -41 -36 -76 -41 -92 -13 -7 13 -10 461 -10 1379 0 1199 2 1365 15 1403 17
49 99 139 127 139 9 0 20 5 23 10 4 7 324 10 929 10 889 0 924 -1 962 -19z"/>
</g>
</svg>
