<?xml version="1.0" standalone="no"?>
<!DOCTYPE svg PUBLIC "-//W3C//DTD SVG 20010904//EN"
 "http://www.w3.org/TR/2001/REC-SVG-20010904/DTD/svg10.dtd">
<svg version="1.0" xmlns="http://www.w3.org/2000/svg"
 width="225.000000pt" height="225.000000pt" viewBox="0 0 225.000000 225.000000"
 preserveAspectRatio="xMidYMid meet">

<g transform="translate(0.000000,225.000000) scale(0.100000,-0.100000)"
fill="#000000" stroke="none">
<path d="M94 1945 c-12 -48 7 -55 138 -55 128 0 165 -11 187 -54 10 -21 129
-423 231 -780 28 -99 60 -194 71 -212 30 -49 94 -102 137 -114 26 -7 187 -9
462 -8 413 3 423 3 436 23 12 18 11 24 -2 43 l-15 22 -430 0 c-483 0 -469 -2
-514 73 -14 24 -25 47 -25 50 0 3 227 8 504 9 492 3 505 4 533 24 37 27 74 97
221 424 154 344 163 389 79 440 -31 19 -56 20 -718 20 -519 0 -688 -3 -697
-12 -16 -16 -15 -55 1 -65 6 -4 320 -10 697 -13 l685 -5 -3 -30 c-6 -50 -287
-674 -310 -689 -5 -3 -236 -6 -513 -6 l-503 -1 -91 328 c-170 609 -156 564
-194 590 -32 22 -44 23 -197 23 l-164 0 -6 -25z"/>
<path d="M825 666 c-122 -45 -170 -201 -95 -305 86 -118 277 -107 339 21 38
79 22 189 -35 239 -56 49 -145 68 -209 45z m158 -116 c21 -24 27 -40 27 -76 0
-39 -5 -51 -34 -80 -29 -29 -41 -34 -80 -34 -89 0 -148 86 -111 163 38 82 136
95 198 27z"/>
<path d="M1650 667 c-89 -29 -155 -146 -131 -234 27 -98 97 -153 197 -153 228
0 273 316 55 389 -41 13 -74 13 -121 -2z m153 -117 c21 -24 27 -40 27 -76 0
-39 -5 -51 -34 -80 -29 -29 -41 -34 -81 -34 -40 0 -52 5 -81 34 -29 29 -34 41
-34 79 0 112 127 160 203 77z"/>
</g>
</svg>
