<?xml version="1.0" standalone="no"?>
<!DOCTYPE svg PUBLIC "-//W3C//DTD SVG 20010904//EN"
 "http://www.w3.org/TR/2001/REC-SVG-20010904/DTD/svg10.dtd">
<svg version="1.0" xmlns="http://www.w3.org/2000/svg"
 width="512.000000pt" height="512.000000pt" viewBox="0 0 512.000000 512.000000"
 preserveAspectRatio="xMidYMid meet">

<g transform="translate(0.000000,512.000000) scale(0.100000,-0.100000)"
fill="#000000" stroke="none">
<path d="M2741 4034 c-170 -45 -322 -194 -372 -361 l-12 -43 -644 0 -643 0 0
-110 0 -110 643 0 644 0 12 -42 c51 -171 203 -318 376 -363 76 -19 194 -19
270 0 173 45 325 192 376 363 l12 42 324 0 323 0 0 110 0 110 -323 0 -324 0
-12 43 c-51 170 -203 317 -376 362 -73 19 -202 18 -274 -1z m270 -223 c69 -33
112 -74 150 -143 31 -58 34 -70 34 -148 0 -78 -3 -90 -34 -148 -38 -70 -70
-100 -145 -140 -43 -22 -64 -26 -136 -26 -78 -1 -90 2 -148 33 -69 37 -109 80
-144 151 -32 66 -31 196 2 265 42 86 123 152 215 176 49 13 158 2 206 -20z"/>
<path d="M1524 2980 c-217 -33 -385 -187 -440 -402 -22 -83 -15 -222 14 -303
116 -319 503 -452 787 -271 101 65 188 178 221 286 l18 60 963 0 963 0 0 105
0 105 -963 0 -962 0 -23 66 c-71 204 -247 340 -462 357 -36 3 -88 2 -116 -3z
m214 -239 c65 -33 118 -87 149 -149 24 -48 28 -69 28 -137 -1 -105 -27 -167
-101 -234 -125 -114 -303 -114 -428 0 -154 140 -136 380 38 497 66 44 97 52
191 48 59 -2 91 -8 123 -25z"/>
<path d="M3415 1910 c-199 -48 -362 -198 -406 -372 l-11 -48 -964 0 -964 0 0
-105 0 -105 963 0 964 0 12 -42 c50 -168 185 -306 350 -359 90 -29 230 -29
322 0 176 56 322 218 360 399 16 78 7 214 -19 287 -56 153 -178 274 -332 325
-73 25 -212 35 -275 20z m167 -211 c100 -21 187 -91 230 -184 35 -76 33 -191
-5 -267 -30 -62 -83 -115 -149 -150 -36 -19 -58 -23 -138 -23 -80 0 -102 4
-138 23 -66 35 -119 88 -149 150 -38 76 -40 191 -5 267 41 89 123 158 216 181
66 16 75 16 138 3z"/>
</g>
</svg>
