<?xml version="1.0" standalone="no"?>
<!DOCTYPE svg PUBLIC "-//W3C//DTD SVG 20010904//EN"
 "http://www.w3.org/TR/2001/REC-SVG-20010904/DTD/svg10.dtd">
<svg version="1.0" xmlns="http://www.w3.org/2000/svg"
 width="270.000000pt" height="186.000000pt" viewBox="0 0 270.000000 186.000000"
 preserveAspectRatio="xMidYMid meet">

<g transform="translate(0.000000,186.000000) scale(0.100000,-0.100000)"
fill="#000000" stroke="none">
<path d="M612 1799 c-81 -18 -188 -52 -224 -71 -11 -5 -18 -20 -18 -38 0 -43
-8 -57 -46 -81 -61 -38 -125 -200 -204 -519 -73 -297 -92 -407 -97 -550 -7
-197 27 -319 112 -405 62 -61 177 -105 277 -105 92 0 143 75 237 352 59 175
62 180 106 214 50 38 95 45 182 28 101 -19 724 -19 832 0 81 15 125 9 168 -22
49 -35 59 -53 112 -212 62 -185 108 -284 151 -325 30 -28 36 -30 108 -29 189
3 312 106 358 300 23 101 15 300 -20 467 -69 327 -152 619 -207 728 -18 36
-41 65 -63 78 -38 24 -46 38 -46 82 0 26 -6 32 -47 50 -71 31 -228 70 -309 76
-68 5 -71 5 -92 -22 -12 -15 -22 -34 -22 -41 0 -9 -9 -12 -27 -9 -60 10 -342
25 -481 25 -146 0 -446 -16 -489 -25 -15 -4 -23 -1 -23 8 0 8 -9 26 -21 41
-18 22 -28 26 -72 25 -29 0 -90 -9 -135 -20z m1191 -85 c81 -8 78 9 37 -216
-42 -228 -48 -248 -90 -273 -33 -19 -51 -20 -400 -20 -350 0 -366 1 -400 21
-29 17 -38 30 -51 81 -21 75 -75 390 -69 397 22 21 756 29 973 10z m-1011
-130 c10 -60 27 -155 38 -210 37 -186 28 -220 -87 -345 -76 -82 -94 -108 -151
-224 -56 -115 -196 -472 -277 -712 -3 -9 -16 -8 -52 5 -67 24 -144 102 -174
177 -22 55 -24 74 -24 230 0 159 2 181 38 348 63 296 146 578 195 670 21 39
36 53 86 77 77 37 339 103 380 96 5 -1 18 -51 28 -112z m1378 67 c100 -27 180
-63 208 -96 16 -18 41 -64 55 -101 60 -157 163 -566 197 -779 16 -97 13 -289
-4 -353 -29 -107 -97 -189 -185 -222 -39 -15 -53 -17 -56 -8 -84 248 -220 598
-277 713 -58 117 -75 143 -149 222 -91 97 -112 138 -107 217 3 48 59 387 74
442 3 12 140 -8 244 -35z m-1114 -630 c79 -36 112 -133 72 -211 -30 -59 -77
-90 -137 -90 -97 0 -161 63 -161 158 0 68 27 113 85 142 50 25 88 25 141 1z
m727 5 c18 -7 45 -28 61 -45 24 -25 30 -42 34 -91 4 -52 1 -66 -21 -99 -84
-126 -281 -75 -294 76 -5 65 26 120 87 151 51 25 87 28 133 8z m-1214 -757
c-32 -84 -78 -173 -85 -166 -2 2 12 39 31 83 20 43 45 100 57 126 34 76 32 48
-3 -43z m1616 -83 c19 -44 33 -81 31 -83 -7 -7 -53 82 -85 164 -55 146 -32
110 54 -81z"/>
<path d="M687 1604 c-10 -11 -9 -68 3 -98 11 -29 47 -36 56 -11 4 8 2 36 -2
63 -7 36 -14 48 -29 50 -12 2 -24 0 -28 -4z"/>
<path d="M440 1428 c1 -41 6 -59 23 -78 50 -55 53 -55 81 -7 25 42 33 88 20
121 -5 12 -21 16 -65 16 l-59 0 0 -52z"/>
<path d="M587 1319 c-20 -17 -37 -36 -37 -42 0 -25 68 -57 119 -57 28 0 52 4
55 8 3 5 2 34 -1 65 l-6 57 -46 0 c-37 0 -54 -6 -84 -31z"/>
<path d="M338 1323 c-27 -4 -28 -7 -28 -63 0 -32 3 -61 8 -63 4 -3 28 -3 53 0
48 6 114 53 106 76 -5 16 -78 57 -97 55 -8 0 -27 -3 -42 -5z"/>
<path d="M485 1200 c-25 -40 -30 -74 -18 -119 6 -22 9 -23 61 -17 30 4 58 8
62 11 3 2 4 27 0 55 -5 36 -14 59 -35 80 -16 17 -32 30 -37 30 -4 0 -19 -18
-33 -40z"/>
<path d="M1964 1596 c-3 -8 -6 -36 -7 -63 -2 -45 0 -48 23 -48 22 0 26 6 34
46 5 26 6 54 3 63 -8 20 -46 21 -53 2z"/>
<path d="M2127 1524 c-51 -28 -60 -86 -21 -133 41 -49 112 -41 142 16 41 77
-44 160 -121 117z"/>
<path d="M2290 1345 c-53 -57 -12 -150 66 -148 77 2 114 94 59 148 -34 35 -93
34 -125 0z"/>
<path d="M1974 1328 c-25 -12 -44 -48 -44 -84 0 -37 51 -84 90 -84 43 0 90 47
90 90 0 65 -75 108 -136 78z"/>
<path d="M2155 1157 c-40 -34 -38 -92 5 -130 26 -23 38 -28 63 -23 50 10 77
43 77 92 0 34 -5 47 -26 63 -35 28 -86 27 -119 -2z"/>
<path d="M924 991 c-46 -28 -64 -60 -64 -109 0 -78 51 -132 127 -132 79 0 141
72 128 149 -14 86 -120 137 -191 92z"/>
<path d="M1661 992 c-37 -20 -71 -73 -71 -110 0 -40 28 -91 62 -112 92 -56
198 4 198 112 0 54 -27 93 -76 114 -45 19 -73 18 -113 -4z"/>
</g>
</svg>
