<?xml version="1.0" standalone="no"?>
<!DOCTYPE svg PUBLIC "-//W3C//DTD SVG 20010904//EN"
 "http://www.w3.org/TR/2001/REC-SVG-20010904/DTD/svg10.dtd">
<svg version="1.0" xmlns="http://www.w3.org/2000/svg"
 width="117.000000pt" height="120.000000pt" viewBox="0 0 117.000000 120.000000"
 preserveAspectRatio="xMidYMid meet">
<metadata>
Created by potrace 1.16, written by Peter Selinger 2001-2019
</metadata>
<g transform="translate(0.000000,120.000000) scale(0.100000,-0.100000)"
fill="#000000" stroke="none">
<path d="M467 1121 c-427 -225 -467 -253 -434 -305 17 -26 517 -337 550 -343
29 -4 537 314 554 347 23 46 6 60 -253 202 -137 75 -262 141 -277 147 -25 9
-41 4 -140 -48z m365 -122 c232 -126 277 -153 267 -163 -9 -9 -489 -307 -503
-312 -11 -4 -326 182 -516 306 -13 8 -13 11 0 24 15 14 489 275 502 276 4 0
116 -59 250 -131z"/>
<path d="M30 616 c0 -8 15 -26 33 -39 70 -53 507 -317 524 -317 23 0 533 319
547 342 6 9 8 20 4 23 -9 10 -63 -21 -317 -179 -129 -80 -239 -142 -245 -139
-6 4 -111 69 -233 145 -205 126 -294 178 -308 178 -3 0 -5 -7 -5 -14z"/>
<path d="M32 387 c2 -17 64 -60 268 -186 145 -90 274 -163 287 -163 12 0 129
66 260 147 293 182 293 182 293 205 0 18 -3 18 -27 7 -16 -6 -131 -77 -258
-156 -126 -79 -240 -148 -251 -153 -19 -9 -59 13 -270 143 -136 85 -261 160
-277 166 -27 12 -28 11 -25 -10z"/>
</g>
</svg>
