<?xml version="1.0" standalone="no"?>
<!DOCTYPE svg PUBLIC "-//W3C//DTD SVG 20010904//EN"
 "http://www.w3.org/TR/2001/REC-SVG-20010904/DTD/svg10.dtd">
<svg version="1.0" xmlns="http://www.w3.org/2000/svg"
 width="200.000000pt" height="200.000000pt" viewBox="0 0 200.000000 200.000000"
 preserveAspectRatio="xMidYMid meet">

<g transform="translate(0.000000,200.000000) scale(0.100000,-0.100000)"
fill="#000000" stroke="none">
<path d="M1030 1811 c0 -28 -3 -30 -47 -36 -27 -4 -56 -9 -65 -12 -15 -3 -18
2 -18 31 0 24 -5 36 -14 36 -7 0 -60 -22 -117 -48 -57 -27 -121 -56 -141 -65
-25 -11 -38 -23 -38 -36 0 -14 -17 -29 -52 -48 -59 -31 -55 -20 -72 -205 l-8
-77 47 -50 c25 -27 42 -52 37 -55 -5 -3 -7 -37 -4 -76 4 -64 2 -76 -23 -123
-16 -29 -41 -70 -56 -92 l-28 -40 10 -185 10 -185 63 -65 c34 -36 86 -102 115
-147 60 -94 104 -137 158 -154 67 -20 282 -24 345 -5 69 20 133 80 216 205 70
104 110 204 157 385 54 210 65 283 48 298 -21 17 -49 75 -68 143 -11 36 -35
82 -60 115 -62 80 -66 91 -82 229 -10 88 -19 132 -31 145 -9 10 -57 39 -107
63 -49 25 -102 54 -117 64 -39 28 -58 25 -58 -10z m181 -81 c41 -21 80 -44 86
-52 14 -17 20 -57 38 -250 16 -168 12 -248 -12 -248 -18 0 -332 -124 -396
-157 l-48 -24 3 68 3 67 60 24 c33 13 66 29 74 37 10 10 14 68 17 257 3 133 7
271 10 306 l6 62 41 -25 c23 -14 76 -43 118 -65z m-334 -122 c-4 -112 -7 -294
-7 -406 l0 -202 -130 -63 c-121 -58 -129 -61 -135 -42 -4 11 -9 169 -11 350
-3 245 -1 345 8 389 l13 59 93 38 c51 21 107 47 125 58 18 11 36 21 41 21 5 0
6 -83 3 -202z m153 65 c-1 -65 -3 -83 -11 -70 -7 12 -23 17 -59 17 -38 0 -50
-4 -54 -17 -9 -30 -10 -178 -2 -191 10 -16 91 -16 104 1 6 7 13 40 15 72 2 33
4 13 4 -45 0 -58 -2 -136 -6 -175 -5 -62 -8 -70 -26 -68 -11 1 -37 -4 -58 -12
l-38 -15 3 66 3 66 48 19 49 19 -4 -70 c-2 -38 0 -70 5 -70 4 0 7 34 7 75 0
41 -2 75 -5 75 -2 0 -29 -9 -60 -21 l-55 -20 0 -74 c0 -48 4 -75 12 -77 7 -3
4 -7 -7 -11 -18 -7 -18 2 -12 289 4 164 9 299 11 301 4 5 88 20 119 22 15 1
17 -9 17 -86z m-448 -230 l-4 -192 -49 52 c-40 43 -48 58 -47 87 0 21 2 26 5
13 2 -12 19 -33 37 -47 l33 -25 7 46 c3 25 6 90 6 144 0 88 -2 98 -17 92 -11
-4 -12 -8 -5 -11 13 -4 17 -164 6 -221 l-7 -32 -22 21 c-20 19 -22 29 -20 120
1 55 4 102 7 105 3 3 4 -7 1 -22 l-3 -28 11 25 c7 14 13 29 13 33 1 7 50 39
51 34 1 -1 -1 -88 -3 -194z m423 67 l0 -95 -39 -3 c-21 -2 -43 1 -49 7 -10 10
-11 167 -1 183 3 5 25 8 47 6 l42 -3 0 -95z m-508 -42 c-2 -13 -4 -5 -4 17 -1
22 1 32 4 23 2 -10 2 -28 0 -40z m923 -172 c33 -37 35 -43 39 -123 6 -154 -61
-364 -140 -438 l-32 -30 6 25 c22 94 58 415 60 524 1 120 2 127 17 105 8 -13
31 -41 50 -63z m-840 -151 c0 -50 -4 -85 -10 -85 -6 0 -10 30 -10 69 0 38 -3
76 -6 85 -4 11 -1 16 10 16 13 0 16 -14 16 -85z m760 3 c0 -12 -8 -80 -17
-151 -16 -122 -18 -130 -42 -140 -74 -30 -571 -262 -599 -279 -18 -11 -35 -19
-36 -17 -2 2 -11 69 -21 148 -14 120 -14 146 -3 157 32 31 650 301 696 303 16
1 22 -5 22 -21z m190 -95 c12 -19 11 -36 -9 -134 -12 -62 -31 -130 -42 -151
-11 -21 -17 -43 -14 -48 3 -5 0 -28 -6 -50 -7 -24 -15 -36 -20 -29 -8 13 -9
11 -34 -99 -20 -86 -31 -90 -16 -6 6 31 9 60 6 62 -6 7 -11 -11 -29 -101 -18
-91 -41 -140 -31 -67 21 153 9 165 -15 15 -11 -70 -35 -143 -45 -133 -2 1 5
41 16 88 10 47 18 96 18 110 l-1 25 -8 -25 c-4 -14 -18 -73 -30 -132 -17 -81
-29 -113 -46 -129 -13 -13 -24 -17 -24 -11 0 26 61 297 68 302 4 3 33 23 64
44 51 34 128 113 128 131 0 4 -21 -16 -46 -44 -48 -53 -131 -117 -141 -108 -2
3 -1 31 2 62 7 49 14 65 53 108 75 84 126 218 139 358 l6 67 21 -42 c12 -22
28 -51 36 -63z m-967 1 c12 -4 13 -11 5 -32 -15 -40 -1 -182 18 -182 8 0 14
-3 14 -7 0 -5 9 -73 19 -153 16 -119 66 -334 99 -419 14 -36 -24 8 -76 88 -30
47 -81 113 -113 146 l-58 61 -9 174 -10 175 44 69 c24 38 44 73 44 78 0 9 3
10 23 2z m32 -203 c-10 -9 -14 6 -21 71 -4 37 -3 75 1 85 6 12 11 -10 16 -67
5 -46 6 -86 4 -89z m705 -12 c0 -6 -11 -77 -25 -158 -39 -230 -92 -463 -106
-472 -72 -46 -387 -34 -425 16 -6 8 -30 82 -53 165 -50 174 -55 155 59 211 84
40 500 234 520 242 24 9 30 8 30 -4z"/>
</g>
</svg>
