<?xml version="1.0" standalone="no"?>
<!DOCTYPE svg PUBLIC "-//W3C//DTD SVG 20010904//EN"
 "http://www.w3.org/TR/2001/REC-SVG-20010904/DTD/svg10.dtd">
<svg version="1.0" xmlns="http://www.w3.org/2000/svg"
 width="200.000000pt" height="200.000000pt" viewBox="0 0 200.000000 200.000000"
 preserveAspectRatio="xMidYMid meet">

<g transform="translate(0.000000,200.000000) scale(0.100000,-0.100000)"
fill="#000000" stroke="none">
<path d="M408 1423 c-103 -4 -108 -5 -109 -26 -1 -16 -3 -17 -6 -5 -8 31 -91
34 -180 7 -41 -13 -89 -67 -102 -116 -7 -22 -11 -148 -11 -303 0 -236 2 -269
19 -306 21 -46 57 -78 105 -94 22 -7 298 -10 887 -8 l854 3 43 25 c24 13 53
40 65 60 21 34 22 43 22 336 l0 300 -27 41 c-34 52 -85 75 -175 81 -69 4 -73
3 -82 -19 l-10 -24 0 23 -1 22 -472 0 c-260 1 -527 2 -593 4 -66 1 -168 1
-227 -1z m1272 -423 l0 -410 -680 0 -680 0 0 410 0 410 680 0 680 0 0 -410z
m-1410 -6 l0 -406 -74 4 c-80 4 -110 18 -150 72 -20 26 -21 43 -24 309 -2 241
-1 288 13 324 26 68 84 100 188 102 l47 1 0 -406z m1638 379 c14 -10 35 -32
46 -47 20 -26 21 -40 21 -331 0 -293 -1 -305 -21 -332 -33 -45 -79 -65 -155
-71 l-69 -5 0 408 0 408 76 -5 c53 -4 83 -11 102 -25z"/>
<path d="M360 995 l0 -385 640 0 640 0 0 385 0 385 -640 0 -640 0 0 -385z
m1175 0 l0 -310 -532 -3 -533 -2 0 315 0 315 533 -2 532 -3 0 -310z"/>
<path d="M205 1320 c3 -5 15 -10 26 -10 10 0 19 5 19 10 0 6 -12 10 -26 10
-14 0 -23 -4 -19 -10z"/>
<path d="M100 1230 c-41 -41 -13 -110 44 -110 19 0 40 8 49 18 37 41 6 112
-48 112 -14 0 -34 -9 -45 -20z"/>
<path d="M125 1023 c-18 -18 -16 -32 8 -47 21 -13 51 13 42 36 -10 24 -32 29
-50 11z m30 -23 c3 -5 1 -10 -4 -10 -6 0 -11 5 -11 10 0 6 2 10 4 10 3 0 8 -4
11 -10z"/>
<path d="M54 955 c-4 -8 -3 -22 0 -31 8 -21 50 -14 54 10 6 31 -43 50 -54 21z
m36 -15 c0 -5 -5 -10 -11 -10 -5 0 -7 5 -4 10 3 6 8 10 11 10 2 0 4 -4 4 -10z"/>
<path d="M184 955 c-9 -23 3 -45 25 -45 25 0 34 14 26 40 -7 23 -43 27 -51 5z
m31 -15 c3 -5 1 -10 -4 -10 -6 0 -11 5 -11 10 0 6 2 10 4 10 3 0 8 -4 11 -10z"/>
<path d="M127 895 c-18 -18 -13 -40 11 -50 23 -9 49 21 36 42 -15 24 -29 26
-47 8z m33 -19 c0 -3 -4 -8 -10 -11 -5 -3 -10 -1 -10 4 0 6 5 11 10 11 6 0 10
-2 10 -4z"/>
<path d="M170 780 c0 -27 3 -30 30 -30 27 0 30 3 30 30 0 27 -3 30 -30 30 -27
0 -30 -3 -30 -30z m45 -1 c0 -7 -8 -15 -17 -17 -18 -3 -25 18 -11 32 10 10 28
1 28 -15z"/>
<path d="M190 780 c0 -5 5 -10 10 -10 6 0 10 5 10 10 0 6 -4 10 -10 10 -5 0
-10 -4 -10 -10z"/>
<path d="M1752 1338 c-7 -7 -7 -14 1 -23 9 -9 14 -9 24 1 16 16 16 21 -1 27
-7 3 -18 1 -24 -5z"/>
<path d="M1821 1276 c-16 -20 -3 -46 24 -46 13 0 26 7 29 16 7 19 -10 44 -29
44 -7 0 -18 -6 -24 -14z"/>
<path d="M1754 1206 c-10 -26 4 -48 28 -44 17 2 23 10 23 28 0 18 -6 26 -23
28 -13 2 -25 -3 -28 -12z"/>
<path d="M1884 1205 c-8 -21 2 -45 19 -45 20 0 40 27 33 45 -7 19 -45 20 -52
0z"/>
<path d="M1824 1145 c-9 -23 3 -45 26 -45 25 0 37 25 20 45 -16 19 -39 19 -46
0z"/>
<path d="M1800 1020 c-41 -41 -10 -110 48 -110 36 0 62 28 62 67 0 57 -69 84
-110 43z"/>
<path d="M1753 814 c-15 -39 38 -67 60 -32 8 12 7 21 -2 32 -17 21 -50 20 -58
0z m55 -17 c4 -20 -25 -34 -40 -19 -15 15 -1 44 19 40 10 -2 19 -11 21 -21z"/>
<path d="M1770 795 c0 -8 7 -15 15 -15 8 0 15 7 15 15 0 8 -7 15 -15 15 -8 0
-15 -7 -15 -15z"/>
</g>
</svg>
